<svg width="75" height="75" viewBox="0 0 75 75" fill="none" xmlns="http://www.w3.org/2000/svg">
<path d="M2 25C2 13.9543 10.9543 5 22 5H52C63.0457 5 72 13.9543 72 25V55C72 66.0457 63.0457 75 52 75H22C10.9543 75 2 66.0457 2 55V25Z" fill="#F4EDED"/>
<path d="M12.2381 26.1818H17.927L23.9355 40.8409H24.1912L30.1998 26.1818H35.8887V48H31.4142V33.799H31.2331L25.5868 47.8935H22.54L16.8936 33.7457H16.7125V48H12.2381V26.1818ZM47.0614 48.3196C45.3782 48.3196 43.9293 47.9787 42.7148 47.2969C41.5075 46.608 40.5771 45.6349 39.9237 44.3778C39.2702 43.1136 38.9435 41.6186 38.9435 39.8928C38.9435 38.2095 39.2702 36.7322 39.9237 35.4609C40.5771 34.1896 41.4968 33.1989 42.6829 32.4886C43.8761 31.7784 45.2752 31.4233 46.8803 31.4233C47.9599 31.4233 48.9648 31.5973 49.8952 31.9453C50.8327 32.2862 51.6495 32.8011 52.3455 33.4901C53.0487 34.179 53.5955 35.0455 53.9862 36.0895C54.3768 37.1264 54.5721 38.3409 54.5721 39.733V40.9794H40.7546V38.1669H50.3001C50.3001 37.5135 50.158 36.9347 49.8739 36.4304C49.5898 35.9261 49.1957 35.532 48.6914 35.2479C48.1942 34.9567 47.6154 34.8111 46.9549 34.8111C46.266 34.8111 45.6552 34.9709 45.1225 35.2905C44.5969 35.603 44.185 36.0256 43.8867 36.5582C43.5884 37.0838 43.4357 37.6697 43.4286 38.3161V40.9901C43.4286 41.7997 43.5778 42.4993 43.8761 43.0888C44.1815 43.6783 44.6112 44.1328 45.1651 44.4524C45.7191 44.772 46.3761 44.9318 47.136 44.9318C47.6403 44.9318 48.1019 44.8608 48.521 44.7188C48.94 44.5767 49.2987 44.3636 49.5969 44.0795C49.8952 43.7955 50.1225 43.4474 50.2788 43.0355L54.4762 43.3125C54.2631 44.321 53.8263 45.2017 53.1658 45.9545C52.5124 46.7003 51.6673 47.2827 50.6303 47.7017C49.6005 48.1136 48.4109 48.3196 47.0614 48.3196ZM60.1864 48.277C59.4833 48.277 58.8796 48.0284 58.3754 47.5312C57.8782 47.027 57.6296 46.4233 57.6296 45.7202C57.6296 45.0241 57.8782 44.4276 58.3754 43.9304C58.8796 43.4332 59.4833 43.1847 60.1864 43.1847C60.8683 43.1847 61.4648 43.4332 61.9762 43.9304C62.4876 44.4276 62.7433 45.0241 62.7433 45.7202C62.7433 46.1889 62.6225 46.6186 62.381 47.0092C62.1467 47.3928 61.8377 47.7017 61.4542 47.9361C61.0707 48.1634 60.6481 48.277 60.1864 48.277Z" fill="#E75248"/>
</svg>
